
<?xml version="1.0" encoding="UTF-8" standalone="no"?>
<!--Created with Inkscape (http://www.inkscape.org/)-->
<svg viewBox="0 0 124.1151 31.194208" version="1.1" id="svg1" xmlns="http://www.w3.org/2000/svg">
  <defs id="defs1"/>
  <g id="layer1" transform="translate(-21.8601,-86.911223)">
    <path style="fill:none;stroke:#000000;stroke-width:2.2;stroke-linecap:round;stroke-linejoin:round" d="m 22.9601,94.432666 c 1.81291,-1.722208 5.433173,-8.274129 4.814215,-5.925187 -1.031784,3.915618 -1.757135,8.369693 -0.126968,12.178901 1.671332,3.90541 5.990367,1.26087 7.165761,-1.958307 1.134293,-3.106611 4.193241,-11.532534 1.318604,-9.82469 -0.579934,0.344543 -0.03565,4.495874 0.160059,6.269932 0.701824,6.361845 4.651279,13.634195 1.110972,19.256855 -1.689697,2.68355 -5.874971,0.8149 -7.028288,-1.60525 -1.82885,-3.8377 2.14265,-7.65112 5.948691,-5.755 2.959849,1.47457 4.724849,-1.63863 7.04346,-2.79128 2.388444,-1.18737 8.465483,2.17784 6.997484,0.15278 -1.763706,-2.43298 -5.219146,-1.88099 -7.495938,0.25454 -2.792023,2.6188 -1.695293,8.45324 2.400336,8.89554 4.153822,0.44858 5.676193,-4.20998 6.009838,-7.83259 0.126972,-1.37862 -1.124208,-6.402481 -1.090317,-2.5249 0.02909,3.32813 4.585019,3.71727 5.43563,0.51138 0.374828,-1.4127 1.023047,-2.92523 0.05145,-0.7191 -1.094147,2.48441 -0.740038,4.97046 0.634325,7.60814 1.431873,2.74806 5.510117,3.01606 6.423669,-0.50272 0.727497,-2.80214 4.068693,-7.54974 1.338484,-8.62063 -1.37124,-0.53785 -0.500834,3.89019 -0.811014,5.19122 -0.42585,1.78619 2.192232,5.99482 1.546174,5.1456 -2.150618,-2.82691 -0.331875,-5.9099 1.911211,-8.71727 1.542482,-1.93052 7.98051,-2.43725 6.606248,-3.1331 -2.620305,-1.326769 -5.67312,4.844 -2.54002,4.86137 2.629278,0.0146 4.350135,0.8953 6.436512,3.10663 2.808235,2.97641 -1.276013,4.82457 -4.210703,4.62423 -1.272876,-0.0869 -2.576629,-0.23454 -3.759356,-0.74186" id="path2"/>
    <path style="fill:none;stroke:#000000;stroke-width:2.2;stroke-linecap:round;stroke-linejoin:round" d="m 92.210722,114.43017 c 2.865911,-1.60231 4.073309,-4.98984 5.216027,-7.88668 1.757704,-4.45585 3.879941,-8.871745 4.671811,-13.592736 0.19824,-1.181867 0.2181,-4.008728 0.0538,-0.99967 -0.29862,5.469243 -2.272841,11.486216 0.42602,16.533606 0.94137,1.76055 3.44413,4.80405 5.40814,3.03384 3.14243,-2.83235 0.47621,-6.96589 -2.29301,-9.77631 -1.23145,-1.24977 -5.695655,0.45848 -2.22279,-0.84247 2.52715,-0.946678 7.35544,-3.538841 7.99686,-0.91222 0.80344,3.2901 2.34146,13.35076 1.85162,9.99875 -0.42546,-2.91147 -0.4506,-6.02095 0.48065,-8.91123 0.79736,-2.474746 7.93993,-3.39961 6.13339,0.0774 -1.09802,2.11332 -2.19243,4.61786 -0.75225,7.11596 1.76516,3.06177 5.27322,1.77647 6.06031,-1.45752 0.6017,-2.47224 2.70415,-9.697159 1.65129,-7.487707 -0.90634,1.901967 0.56595,5.436257 0.22783,7.881857 -0.29269,2.11701 1.08414,4.08924 2.8789,1.64449 2.35257,-3.20454 2.84476,-7.28617 3.50999,-11.091415 0.5123,-2.930379 3.1134,-6.670346 1.08562,-8.882879 -1.989,-2.170213 -3.66471,2.646188 -3.61411,4.388449 0.13711,4.721832 -0.004,9.921095 2.53798,13.974315 2.20956,3.52314 3.69715,-1.47051 4.23411,-3.64679 0.31352,-1.27068 0.37303,-4.888729 0.3827,-4.673588 0.1058,2.354498 0.42245,6.573078 3.76373,6.278868 3.01936,-0.26586 2.62311,-7.043667 2.56525,-6.176453 -0.33758,5.059703 0.98014,10.166603 0.0755,15.186523 -0.69181,3.83875 -5.27206,2.91786 -7.96031,1.941 -1.6253,-0.5906 -3.19772,-1.31674 -4.74433,-2.08769" id="path3"/>
  </g>
</svg>

