<svg
   width="362.96686mm"
   height="193.263mm"
   viewBox="0 0 362.96686 193.263"
   version="1.1"
   id="svg1"
   xmlns="http://www.w3.org/2000/svg"
   xmlns:svg="http://www.w3.org/2000/svg">
  <defs
     id="defs1" />
  <g
     style="fill:none"
     id="layer1"
     transform="translate(-33.301218,-54.163121)">
    <path
       id="path40"
       style="stroke:#000000;stroke-width:0.472017;stroke-linecap:butt;stroke-linejoin:miter;stroke-dasharray:none;stroke-opacity:1"
       d="m 82.066445,54.399138 c -0.314898,-5.79e-4 -0.646197,0.02992 -0.993738,0.09508 v 5.17e-4 c -6.86054,1.680429 -13.734014,3.3062 -20.601843,4.95732 -7.286662,1.619863 -14.376789,3.958574 -21.28759,6.760311 -2.022852,1.052553 -3.162199,1.34735 -4.426086,3.676778 -1.308514,2.411678 -1.278248,5.203473 -1.175122,7.826912 0.110973,2.82307 0.641656,6.185494 1.019059,8.95966 1.114618,7.700095 2.582939,15.341644 3.910872,23.005834 0.550616,3.17789 1.47692,8.91281 1.999361,12.11968 1.041676,6.37641 1.93612,12.78621 3.384807,19.08823 0.782423,3.40366 1.041289,4.11987 1.998327,7.39283 1.250431,3.79948 2.607407,7.7003 5.386235,10.68979 1.634506,1.75841 2.373665,2.05709 4.352706,3.31917 3.60254,1.75592 7.535303,2.73096 11.519193,3.09181 0.726122,0.0658 1.455509,0.0866 2.18333,0.1297 3.863755,0.0443 7.722685,-0.55465 11.398787,-1.74563 0.709882,-0.22999 1.404127,-0.50512 2.106331,-0.75758 3.561178,-1.38327 6.963002,-3.16582 10.075354,-5.38726 0.675458,-0.48211 1.319814,-1.0063 1.979724,-1.50946 2.541392,-2.03796 4.86517,-4.35096 6.849198,-6.93809 1.0932,-1.42552 1.619,-2.29898 2.5864,-3.7915 1.63841,-2.84618 3.10252,-5.80593 4.32274,-8.85682 0.73615,-1.84061 1.1931,-3.24488 1.83554,-5.11494 1.69139,-4.94844 2.90577,-10.03936 4.36201,-15.05799 1.11265,-3.39467 2.22361,-6.88906 4.15789,-9.92653 0.23161,-0.36369 0.4974,-0.70462 0.7462,-1.05678 0.18646,-0.16083 0.34884,-0.35543 0.55966,-0.48266 0.0841,-0.0508 0.39113,-0.0992 0.42943,0.0899 0.0587,0.28987 -0.36647,0.23543 -0.44907,0.3762 -0.0618,0.10535 0.0409,0.24082 0.0615,0.36122 1.35796,4.03334 1.69398,8.30484 1.8526,12.55997 -0.28934,2.42588 -0.50699,4.86206 -0.73226,7.26777 -0.20134,4.27313 -0.39457,8.51223 -0.11007,12.78681 0.059,0.88575 -0.55374,2.27487 0.25012,2.65151 2.44615,1.14613 5.31084,1.18006 8.01191,1.21957 0.37366,0.005 0.14633,-0.7327 0.21962,-1.09916 0.5314,-6.09239 0.53655,-12.22965 0.50798,-18.33944 -0.0451,-1.3622 -0.1006,-2.72808 -0.15141,-4.09329 0.3677,-2.96941 0.90805,-5.90998 2.01642,-8.68836 0.78461,-1.96681 1.47774,-2.81857 2.62258,-4.52479 0.1033,0.24553 0.25413,0.15812 0.42994,-0.063 0.0828,0.16212 0.17598,0.32495 0.21911,0.48317 0.25462,0.93409 0.50724,1.86904 0.76068,2.80345 0.80045,5.26519 0.85942,10.59506 0.55914,15.90549 -0.19813,1.01457 -0.4017,2.02836 -0.57826,3.04631 -0.18354,1.2608 -0.39326,2.51835 -0.55036,3.78272 -0.12567,1.01142 -0.89646,2.21797 -0.29765,3.04271 0.12959,0.17849 0.20043,0.24771 0.32453,0.41704 0.0133,-0.10414 0.0239,-0.18358 0.0977,-0.43306 -0.0361,0.17018 -0.0768,0.3835 -0.0946,0.43719 4.16523,5.68302 5.35519,6.31299 7.7773,1.865 0.63268,-1.16186 0.0317,-2.78449 0.66663,-3.91242 0.26916,-2.42662 0.46845,-4.8577 0.61546,-7.29154 0.90086,-4.49698 2.03913,-8.94809 3.63751,-13.25139 1.13295,-3.05024 1.69006,-4.07935 3.04632,-6.94893 1.01,-1.84631 1.54531,-2.97305 2.728,-4.63848 0.0729,-0.10263 0.24184,-0.30923 0.36587,-0.47439 0.13152,0.503 0.42102,0.9632 0.58188,1.46193 0.29021,0.89978 0.58658,1.80293 0.76636,2.7311 0.81524,4.20918 0.66383,8.56048 0.64957,12.81937 -0.15186,7.41098 -0.88289,14.79122 -1.5875,22.16506 -0.056,0.57217 -0.10992,1.14473 -0.16795,1.71669 -0.27271,2.68771 -0.003,0.0629 -0.1881,1.61385 -0.015,0.12571 -0.15979,0.3506 -0.0362,0.37776 7.95003,1.74644 7.16953,3.87908 8.01346,0.78341 0.17142,-1.10357 0.53977,-2.13714 0.93328,-3.17707 2.20298,-6.11687 4.1848,-12.31843 6.8094,-18.27537 0.63506,-1.44138 1.34044,-2.85088 2.01073,-4.27622 2.42746,-4.56584 5.15041,-9.0849 8.66769,-12.90929 0.0457,0.41213 0.0948,0.82397 0.10335,1.23765 0.0636,3.05752 -0.15418,4.8063 -0.39481,7.89616 -0.39175,3.79825 -1.02375,7.56597 -1.7048,11.32127 -0.0946,0.52143 -0.19537,1.04338 -0.29352,1.56528 -0.12644,0.49284 -0.25991,0.98377 -0.37879,1.47846 -0.18343,0.76322 -1.18403,1.90653 -0.50488,2.30012 2.31269,1.34026 5.19082,1.27997 7.78609,1.91978 0.10524,-0.38209 0.18223,-0.76867 0.27647,-1.15238 0.20881,-0.12992 0.20652,-0.5245 0.21652,-0.90331 0.13186,-0.58319 0.26308,-1.16813 0.3793,-1.75493 0.12528,-0.49407 0.24817,-0.98878 0.38034,-1.48105 1.2752,-4.74932 2.69195,-9.4532 4.13463,-14.15365 1.86089,-5.7603 3.77742,-11.56577 6.67092,-16.908538 0.72876,-1.345642 1.19854,-2.095095 1.70118,-2.826701 0.0381,0.487277 0.0662,0.974912 0.0992,1.462444 0.005,1.413674 0.0489,2.827833 0.014,4.241084 -0.12089,4.888701 -0.65634,9.756381 -1.15393,14.616681 -0.48671,4.75396 -0.45341,4.38971 -0.94671,8.97723 -0.33274,3.01082 -0.63261,6.02502 -0.93741,9.03873 -0.12344,1.22063 -0.25167,2.38695 -0.2279,3.61115 1.70466,3.63868 1.2746,3.81247 5.9614,2.44067 0.14054,0.0194 0.28197,0.0317 0.42219,0.0532 1.15384,0.2776 2.36021,-0.15782 3.30368,-0.86196 0.29257,-0.108 0.43518,-0.26744 1.19321,-0.99167 0.93318,-1.32782 0.6257,-1.32734 0.96066,-2.30477 0.0684,-0.19965 0.40065,-0.75513 0.48318,-0.92036 0.3465,-0.6624 0.70973,-1.28035 1.24695,-1.79214 1.57294,-1.30759 2.77094,-2.92035 3.86901,-4.63124 0.21599,-0.35106 0.4089,-0.71216 0.60513,-1.07177 1.20519,0.2411 2.4096,0.5085 3.62821,0.44752 1.7762,-0.0889 3.53695,-0.55824 5.20226,-1.18236 5.80989,-2.17742 10.34014,-6.80962 14.15521,-11.51867 1.33636,-1.64951 2.50453,-3.42816 3.75688,-5.14233 0.12839,-0.1971 0.23933,-0.40509 0.36638,-0.60306 0.77165,2.80432 1.8146,5.33492 3.31453,7.91993 1.89796,3.27095 2.90959,4.13655 5.35161,6.86211 3.5737,3.08103 1.73355,1.73623 5.48184,4.08864 4.83763,2.93349 8.98621,-3.90795 4.14858,-6.84144 -2.454,-1.40481 -1.19495,-0.55724 -3.71347,-2.63291 -1.85595,-1.99609 -2.6528,-2.66336 -4.11654,-5.06274 -1.3468,-2.20768 -2.34712,-4.53161 -2.95641,-7.05125 -0.76231,-3.15244 -0.81901,-5.775036 -1.03405,-8.975687 1.69715,-3.586281 3.21372,-7.25822 4.48242,-11.017933 0.18198,-0.539282 0.34057,-1.086238 0.50591,-1.630908 1.9635,0.925199 2.16686,1.102594 3.27215,-2.766239 0.46573,-0.945719 1.05624,-2.066975 1.96319,-3.520716 0.0952,-0.152588 -0.29878,-0.200522 -0.45424,-0.290938 -0.11234,-0.06534 -0.2331,-0.111727 -0.34674,-0.174149 0.12106,-0.432747 -0.81941,-0.419906 -1.22629,-0.63097 -0.61986,-0.258551 -1.12699,-0.470904 -1.64951,-0.684196 0.008,-0.293657 0.0353,-0.586375 0.0248,-0.880566 -0.0231,-0.647359 0.002,-1.324725 -0.2279,-1.930115 -0.36226,-0.951622 -0.6263,-2.157131 -1.51618,-2.652034 -1.45117,-0.807062 -3.26458,-0.609814 -4.89686,-0.914673 -1.04186,0.900611 -2.25893,1.632157 -3.12591,2.70216 -0.34711,0.428392 -0.70412,1.067878 -1.05472,1.782321 -1.20461,-0.004 -2.40764,0.03156 -3.59926,0.150895 -1.54474,0.154705 -3.06545,0.494152 -4.59817,0.74104 -1.66555,0.545216 -3.40933,0.892646 -4.99659,1.635559 -8.0886,3.785838 -14.93996,11.138433 -19.45721,18.716687 -1.09016,1.828876 -1.92991,3.795814 -2.89492,5.693712 -0.21989,0.63225 -0.46086,1.25804 -0.69763,1.88516 0.12377,-2.5212 0.19083,-5.044284 0.0899,-7.571637 -0.20543,-2.268556 -0.29217,-6.762977 -1.77044,-8.76329 -2.18503,-2.956658 -4.249,-3.347551 -7.34218,-2.241723 -1.63338,0.583944 -2.99073,2.383989 -4.07986,3.577559 -1.78611,2.551332 -2.21297,3.012481 -3.75274,5.885946 -1.00112,1.868239 -1.87224,3.796473 -2.69544,5.745902 -0.25865,-0.673261 -0.59217,-1.297133 -1.12448,-1.759066 -1.41385,-1.226913 -3.40942,-1.759259 -5.27358,-1.930114 -0.94528,-0.08664 -1.71845,0.807185 -2.57762,1.210778 -0.63864,0.551915 -1.30816,1.070209 -1.91616,1.655713 -4.96175,4.778202 -8.64342,10.718522 -11.82461,16.773142 -0.18524,0.39581 -0.36729,0.79307 -0.55552,1.18752 0.0147,-4.63032 0.0454,-9.29954 -0.9772,-13.84411 -0.47548,-2.113023 -1.70582,-5.695123 -3.12487,-7.436246 -0.876,-1.074822 -2.1088,-1.80106 -3.16312,-2.701644 -1.36547,-0.121991 -2.73636,-0.538232 -4.09639,-0.365869 -0.89327,0.11321 -1.67576,0.69072 -2.42362,1.192176 -0.66612,0.446654 -1.23243,1.033605 -1.7756,1.623673 -2.01599,2.190078 -3.34652,4.925956 -4.75837,7.50756 -0.42868,0.91428 -0.68699,1.47189 -1.00304,2.14302 -0.63391,-2.07224 -1.43956,-4.295175 -2.94711,-5.664777 -2.80545,-2.548726 -4.78721,-2.744022 -8.03206,-1.337902 -1.48359,0.642901 -3.13473,2.882835 -4.09433,4.013709 -0.31967,0.5003 -0.48604,0.77417 -0.74414,1.17048 -0.4161,-0.7503 -0.91853,-1.45382 -1.37046,-2.18488 -0.7234,-0.626985 -1.34348,-1.398756 -2.17041,-1.881031 -3.13532,-1.828567 -6.57701,-1.190719 -9.24336,1.084171 -0.537,0.458161 -0.96144,1.03352 -1.44229,1.5503 -0.36745,0.54031 -0.75864,1.06532 -1.10226,1.62109 -2.22949,3.60597 -3.62508,7.66426 -4.90254,11.68094 -1.41771,4.89582 -2.60824,9.85986 -4.24574,14.69006 -0.52023,1.51942 -1.03003,3.07035 -1.62367,4.56406 -1.04706,2.63459 -2.30523,5.19034 -3.688148,7.6631 -0.73229,1.13916 -1.255676,2.00128 -2.070675,3.08198 -1.589124,2.10721 -3.466302,3.98542 -5.516976,5.64255 -0.516591,0.40045 -1.019356,0.81954 -1.549776,1.20148 -2.583379,1.86022 -5.402794,3.36192 -8.365381,4.52117 -3.31906,1.22394 -6.763338,2.08071 -10.328051,2.03347 -3.413186,-0.17282 -6.811056,-0.69619 -9.973035,-2.05879 -0.982242,-0.55244 -1.4939,-0.76006 -2.319755,-1.54306 -2.178666,-2.06563 -2.91334,-5.18162 -3.913973,-7.89151 -0.877883,-2.9827 -1.130233,-3.68433 -1.847949,-6.79442 -1.379079,-5.97599 -2.233628,-12.05395 -3.216858,-18.10277 4.46105,-2.63016 9.179453,-4.81367 13.997595,-6.70398 2.121564,-0.83235 4.255768,-1.63852 6.426481,-2.33268 2.09953,-0.67138 4.249618,-1.17415 6.374288,-1.76113 5.450522,-1.51651 3.30595,-9.22456 -2.144572,-7.70805 -2.321714,0.65013 -4.670446,1.21139 -6.965466,1.95026 -2.303996,0.74176 -4.570181,1.60009 -6.821806,2.48822 -4.176983,1.64758 -8.308373,3.48962 -12.251449,5.65961 -0.263228,-1.59342 -0.527762,-3.25848 -0.735872,-4.45968 -1.308777,-7.55413 -2.756698,-15.085608 -3.858679,-22.674589 -0.445151,-3.232155 -0.715207,-4.767169 -0.945162,-7.915796 -0.05873,-0.804113 -0.0074,-1.614889 -0.08992,-2.416907 -0.02548,-0.247542 -0.09746,-0.500197 -0.232027,-0.709517 -0.07531,-0.117142 -0.459147,-0.113376 -0.360185,-0.211357 0.349791,-0.346329 0.862299,-0.475141 1.293461,-0.712618 6.536901,-2.660752 13.25089,-4.86228 20.147091,-6.393408 6.73664,-1.619773 13.481909,-3.201279 20.206001,-4.872571 5.213119,-0.97746 4.242881,-7.950521 -0.48059,-7.959204 z m 53.648925,80.478292 c -0.001,-0.002 -0.002,-0.002 -0.003,-0.004 -0.0103,0.0805 -0.0201,0.0745 0.003,0.004 z m 104.6887,-50.188668 c -0.23591,1.713029 -0.4102,3.43518 -0.50281,5.108732 -0.0808,1.459367 -0.0692,2.922062 -0.0662,4.384229 -1.59873,3.219518 -3.35393,6.362017 -5.29735,9.383927 -1.0899,1.5119 -2.11095,3.07573 -3.26957,4.53564 -3.36643,4.24186 -7.39143,8.57218 -12.80955,10.02677 -0.43052,0.1156 -0.88093,0.13092 -1.32654,0.17002 0.47577,-1.66051 0.91216,-3.33424 1.3317,-5.0028 1.216,-4.70327 2.4841,-9.50324 5.00745,-13.708719 0.53567,-0.89276 1.17025,-1.722203 1.75545,-2.583305 3.42324,-4.477092 7.76143,-8.148496 12.63282,-10.966772 0.83081,-0.48066 1.69259,-0.905232 2.54455,-1.347722 z m -37.95686,5.73195 c 0.37122,0.01875 0.35935,0.454074 -0.90692,0.619601 0.14506,-0.150357 0.27528,-0.317068 0.43873,-0.447001 0.16609,-0.132028 0.33687,-0.179231 0.46819,-0.1726 z m 150.94117,2.446363 c -1.11025,0.01282 -2.23642,0.363982 -3.32589,1.07952 -1.84769,1.213516 -2.19715,2.358336 -3.18844,4.176489 -0.23513,0.781854 -0.47025,1.563744 -0.70538,2.345596 -0.14799,0.5509 -0.19882,1.0653 -0.1757,1.54306 -1.37713,2.24914 -1.3134,4.64864 0.78342,6.87916 0.54483,0.57958 1.40795,0.74083 2.11201,1.11105 2.75976,0.67274 5.68637,0.37101 8.0083,-1.39733 0.52727,-0.40154 0.95661,-0.91756 1.43505,-1.37615 0.37653,-0.6101 0.84895,-1.17067 1.12965,-1.83038 1.03404,-2.43021 0.96948,-5.37667 0.0351,-7.82536 -0.21328,-0.558988 -0.51839,-1.078309 -0.77773,-1.617472 -0.41309,-0.505179 -0.73673,-1.099258 -1.2392,-1.51567 -1.26261,-1.046395 -2.66375,-1.588994 -4.09123,-1.572513 z m 35.09347,3.904671 c -0.53562,-0.06919 -1.2032,-0.06111 -2.08049,0.02791 -1.82284,0.184949 -3.44353,2.045845 -4.34496,3.432354 -1.14374,1.7592 -1.43213,3.12189 -2.07636,5.10872 -0.20493,1.05729 -0.48324,2.10313 -0.61495,3.1719 -1.00187,-0.31135 -2.0375,-0.51369 -3.13366,-0.47594 -0.73429,0.0253 -1.45556,0.20183 -2.18332,0.30283 -0.63876,0.22962 -1.29535,0.41434 -1.91617,0.68884 -2.66755,1.17944 -5.50874,3.35225 -7.44967,5.50561 -0.54486,0.60448 -1.00286,1.28194 -1.5043,1.92289 -0.40138,0.69719 -0.85269,1.36817 -1.20406,2.09186 -1.61264,3.3215 -1.91381,7.06949 -2.28875,10.68254 -0.19819,1.92804 -0.41732,3.85231 -0.7121,5.76814 -0.40661,-1.6725 -0.70321,-3.36848 -0.93173,-5.07566 -0.45249,-4.51052 -0.61873,-9.0367 -0.36018,-13.56713 0.0849,-3.53547 0.4722,-2.90296 -7.36648,-3.45406 -0.53168,-0.0374 -0.68635,2.45222 -0.74207,2.99104 -0.24826,2.80543 -0.32872,5.61934 -0.54261,8.42739 -0.4277,4.90506 -0.99967,9.81428 -2.22673,14.59342 -0.58936,2.05696 -0.68556,2.48703 -1.35961,4.47776 -0.20574,0.60765 -0.4188,1.21351 -0.64906,1.81229 -0.0135,0.0351 -0.029,0.0692 -0.0439,0.10387 -0.007,-0.0105 -0.0122,-0.0351 -0.0196,-0.045 -1.21476,-3.33361 -2.13964,-6.79507 -2.27945,-10.35906 0.005,-0.49116 -0.0239,-0.98364 0.015,-1.47328 0.11491,-1.44852 0.50427,-2.95174 1.43454,-4.09123 0.96311,-0.8421 2.85986,-2.1086 3.19205,-3.34708 0.79909,-2.97929 0.47296,-2.82569 -0.69401,-4.94543 -0.41392,-0.35442 -0.78885,-0.76055 -1.24179,-1.0635 -1.59425,-1.06637 -3.80975,-1.21608 -5.64048,-0.88419 -0.56523,0.10247 -1.10578,0.31081 -1.65881,0.46612 -0.58952,0.26486 -1.19898,0.49009 -1.76889,0.79479 -2.66192,1.42316 -5.15733,3.63335 -6.69261,6.24716 -0.40864,0.69574 -0.66253,1.47132 -0.99374,2.20709 -0.1906,0.76742 -0.43608,1.52315 -0.57154,2.30219 -0.61622,3.54338 -0.044,7.35141 0.34985,10.88564 0.46895,3.65052 1.04327,7.33655 0.30024,10.99571 -0.44135,2.21983 -0.90518,4.47462 -2.22416,6.36498 -0.065,0.0653 -0.13027,0.13052 -0.19533,0.19587 -0.0651,0.0446 -0.1396,0.0779 -0.19534,0.13383 -0.14775,0.14817 0.23365,0.36077 -0.39119,0.19586 -1.07821,-0.64115 -1.62997,-1.70513 -2.16524,-2.81327 -0.68868,-1.42574 -0.99651,-2.31136 -1.52807,-3.70313 0.0424,-3.1768 -0.19281,-6.42926 -0.5271,-9.55188 -0.15493,-1.44706 -0.3673,-2.88835 -0.55811,-4.33203 0.4794,-0.33396 0.98851,-0.62769 1.43971,-0.99994 0.22704,-0.18729 -0.2887,-0.51357 -0.44856,-0.76068 -0.37711,-0.58297 -0.90199,-1.05797 -1.4149,-1.52652 -0.38813,-2.68593 -0.80293,-5.36852 -1.20509,-8.04912 -1.06053,-7.28384 -1.83536,-14.60528 -2.87166,-21.8922 -0.18179,-1.19142 -0.37561,-2.5934 -0.62787,-3.78737 -0.0974,-0.46089 -0.12361,-0.95334 -0.33951,-1.37201 -0.42868,-0.83126 -0.64098,-2.201418 -1.56787,-2.326468 -6.84377,-0.923316 -6.18287,0.468003 -7.48274,4.645198 -0.0884,1.17431 -0.23939,2.34542 -0.2651,3.52277 -0.0684,3.13302 0.1908,6.63229 0.48886,9.73016 0.50905,5.29065 1.32025,10.53774 2.158,15.78353 0.006,0.0367 0.0142,0.0733 0.0207,0.11008 -0.50994,0.051 -1.02312,0.13999 -1.54409,0.28938 -2.00321,0.57471 -3.56377,1.95206 -4.94182,3.44269 -0.4861,0.58057 -0.99446,1.14299 -1.4583,1.74149 -2.93129,3.78233 -5.25241,8.05278 -6.62337,12.64368 -0.19847,0.82749 -0.42608,1.64857 -0.59531,2.48254 -0.69122,3.40656 -0.73129,6.89312 -1.19373,10.3296 -0.32258,2.39574 -0.62405,4.83875 -2.1394,6.81818 -0.0316,0.0427 -0.67569,0.8146 -0.62994,0.86558 0.10644,0.11864 0.41321,0.10686 0.45475,0.32711 -0.099,4e-5 -0.21159,0.0711 -0.2961,0.0196 -0.80414,-0.49028 -1.18577,-1.55052 -1.47485,-2.37246 -0.095,-0.36999 -0.21058,-0.7354 -0.28525,-1.11001 -0.65365,-3.27963 -0.25712,-6.66046 -0.37414,-9.97458 -0.17661,-5.37313 -0.46565,-10.82213 -2.43241,-15.89257 -1.0364,-2.00518 -1.26312,-2.80245 -2.85771,-4.44986 -2.32855,-2.40571 -5.43373,-3.5937 -8.70851,-3.93723 -1.97283,-0.0924 -2.72121,-0.22159 -4.70152,0.0713 -2.51608,0.37212 -4.9444,1.26743 -6.9479,2.86958 -0.67014,0.5359 -1.21946,1.20767 -1.82934,1.81127 -0.48759,0.70393 -1.03425,1.37021 -1.46296,2.1115 -0.51468,0.88991 -0.89414,1.74831 -1.22267,2.62826 -0.93811,-1.51763 -1.81378,-0.54841 -7.37991,2.54352 -0.47139,0.26185 0.14675,1.06856 0.23565,1.60041 0.14257,0.8528 0.65529,3.4844 0.7922,4.19561 1.27927,6.23929 2.55894,12.47636 3.68969,18.7446 0.1789,0.99583 0.32407,1.9971 0.48628,2.99568 0.13042,1.27126 0.25533,2.54355 0.38344,3.81371 0.0675,0.58609 0.19342,1.56835 0.30747,2.52129 -0.30519,1.5399 -0.73008,3.05433 -1.33635,4.49792 -0.38332,0.63728 -0.46729,0.92313 -1.04386,1.37408 -0.5291,0.41382 -0.71897,0.38522 -1.31465,0.62735 -0.0908,0.0369 -0.23384,0.0398 -0.26149,0.13384 -0.0239,0.0813 0.10981,0.1293 0.16485,0.19379 -1.24561,-0.27835 -1.888,-1.6657 -2.62568,-2.5616 -1.8424,-2.78143 -3.59526,-5.63539 -4.87877,-8.72609 -0.59721,-1.54384 -0.98377,-2.45682 -1.46244,-4.05556 -0.63729,-2.12853 -1.07257,-4.30578 -1.43867,-6.49573 -0.10016,-4.60839 -0.30585,-9.21345 -0.67955,-13.80794 -0.12922,-1.28815 -0.29662,-2.57226 -0.50539,-3.8499 -0.0375,-0.22967 -0.0741,-0.45955 -0.11938,-0.68781 -0.0388,-0.19568 0.0665,-0.59304 -0.13281,-0.58394 -2.65864,0.1214 -5.28472,0.63466 -7.92716,0.95188 -0.0831,4.94532 0.32559,9.89056 0.80512,14.80943 0.0321,0.26927 0.0864,0.53596 0.1204,0.80512 -1.19038,-0.53068 -2.42851,-0.96393 -3.72018,-1.24747 -0.70394,-0.15452 -1.42112,-0.24158 -2.13165,-0.36225 -0.8717,-0.0208 -1.74484,-0.11256 -2.61535,-0.0625 -2.58454,0.1485 -5.18728,0.91681 -7.52719,2.1394 -2.09531,0.35503 -4.18202,0.79015 -6.165,1.57252 -3.51687,1.41758 -6.91456,3.13505 -9.96735,5.40535 -1.21955,0.96859 -1.5846,1.20048 -2.68459,2.30425 -1.63149,1.63708 -2.99551,3.5302 -4.19199,5.49992 -2.51346,4.40802 -4.66146,9.02814 -5.82187,13.99347 -0.19137,0.85426 -0.40337,1.70401 -0.57412,2.56263 -0.64033,3.21985 -0.92081,6.49585 -1.34876,9.74669 -0.35395,2.63709 -0.72912,5.28638 -1.46554,7.84862 -0.58517,1.9996 -1.21716,3.99585 -2.3027,5.79086 -0.40775,0.65379 -0.61904,1.03748 -1.10381,1.63763 -1.07935,1.33624 -2.40794,2.45559 -3.65404,3.62768 -0.87517,0.70458 -1.7434,1.38843 -2.70009,1.98024 -0.22953,0.14198 -0.44019,0.33358 -0.6997,0.40773 -0.13448,0.0384 -0.27799,0.0308 -0.41703,0.046 -1.23457,-0.11665 -2.34215,-0.33793 -3.34502,-1.13688 -0.11025,-0.0931 -0.14945,-0.15574 -0.23926,-0.23048 1.08219,-1.43674 2.10882,-2.91573 3.02255,-4.46846 0.53332,-0.90627 1.01162,-1.84371 1.51722,-2.76572 1.79741,-3.56814 3.29169,-7.30265 4.17753,-11.20707 0.5209,-2.2959 0.63048,-3.46786 0.94361,-5.77381 0.34412,-3.20914 0.65357,-6.44987 0.22066,-9.66814 -0.2958,-2.19898 -0.50228,-2.57917 -1.1405,-4.70566 -0.95081,-2.53503 -2.10068,-5.14895 -4.12998,-7.02798 -0.47625,-0.44099 -0.97381,-0.8782 -1.54719,-1.18236 -0.7256,-0.38489 -1.53848,-0.57496 -2.30787,-0.86248 -0.77486,-0.0292 -1.5518,-0.15364 -2.32441,-0.0879 -2.04775,0.17446 -4.16549,1.18455 -5.77019,2.4319 -1.71942,1.33653 -2.16825,2.04862 -3.56309,3.70623 -3.0363,4.02328 -5.02441,8.72842 -5.83479,13.70769 -0.1806,1.10968 -0.24117,2.23601 -0.36173,3.3538 -0.25676,5.677 1.07656,11.25875 3.11557,16.52612 0.37217,0.96143 0.80358,1.89856 1.20561,2.84789 0.78824,1.63026 1.59053,3.26962 2.48667,4.8519 -0.21757,0.21652 -0.42221,0.44544 -0.6444,0.65733 -2.53391,2.26195 -5.16689,4.65474 -8.50749,5.60275 -2.54068,0.47426 -3.53704,0.30761 -5.66012,-1.29707 -0.34865,-0.32532 -0.71783,-0.63014 -1.04593,-0.97617 -2.49082,-2.62698 -4.03543,-6.00463 -5.39451,-9.30744 -0.23788,-0.69081 -0.47779,-1.38076 -0.71365,-2.07223 1.30665,-5.60579 2.17064,-11.31302 3.03237,-17.00051 0.60392,-4.70348 1.37415,-9.40764 1.51516,-14.15728 0.0891,-3.00198 -0.0292,-3.79053 -0.21808,-6.74739 -0.3432,-4.43938 -1.26314,-8.74342 -2.94865,-12.86175 -1.17855,-2.55706 -2.64857,-4.98793 -5.97277,-4.81262 -0.83266,0.0439 -1.57643,0.54369 -2.36471,0.81545 -0.51792,0.44808 -1.08439,0.84553 -1.55391,1.34411 -1.97814,2.10059 -3.09812,5.36364 -3.62252,8.1318 -0.2218,1.17085 -0.33247,2.36033 -0.49868,3.54035 -0.49516,5.31417 -0.59497,10.66662 -0.23771,15.99282 0.21859,3.25906 0.43667,4.75433 0.81856,7.98918 0.85386,6.0707 2.00492,12.11654 3.75171,17.99942 -0.12756,0.49522 -0.23011,0.99627 -0.36691,1.48931 -1.1792,3.93492 -2.29814,8.14156 -5.06532,11.29854 -0.17269,0.14982 -0.31415,0.34518 -0.5178,0.44907 -0.31735,0.16189 -0.66986,0.24678 -1.01544,0.33331 -1.56042,0.39072 -3.19218,0.40668 -4.76043,0.063 -0.87679,-0.30684 -1.27748,-0.39295 -2.07533,-0.89348 -1.99308,-1.25034 -3.28945,-3.25806 -4.46433,-5.23741 -2.69891,-4.69249 -5.09595,-9.54653 -7.40006,-14.44408 1.59552,-0.24579 3.16837,-0.47815 6.01462,-0.90692 1.80877,-0.23429 3.61726,-0.46852 5.42602,-0.7028 5.61058,-0.72762 4.58171,-8.66202 -1.02887,-7.9344 -1.86318,0.24192 -3.72615,0.48363 -5.58933,0.72554 -3.90968,0.58938 -5.96012,0.90149 -8.26202,1.26969 -3.0029,-6.86309 -5.875003,-13.78215 -8.543669,-20.78323 -1.605336,-4.09912 -3.236427,-8.18842 -4.860685,-12.27987 -2.398549,-0.068 -4.807682,-0.43565 -7.195943,-0.2036 -0.221734,0.0215 -0.689151,2.40834 -0.733289,2.62619 -0.75375,3.77994 -1.389621,7.58403 -2.295467,11.33316 -2.527776,10.73662 -5.730207,21.29496 -8.776725,31.89211 -2.691075,9.24725 -5.473154,18.47841 -7.765417,27.83448 -0.930098,5.58059 6.961929,6.89575 7.892024,1.31516 l -10e-4,5.2e-4 c 2.28814,-9.03372 4.952095,-17.96777 7.555611,-26.91412 0.275272,-0.95488 0.548996,-1.91043 0.825789,-2.86494 6.420458,-0.71727 12.766969,-1.95335 19.129582,-3.05253 2.675823,5.79868 5.491689,11.53363 8.669239,17.07441 1.68155,2.88753 3.69607,5.62584 6.47247,7.55458 1.67935,1.16663 2.23709,1.28031 4.09484,2.04432 2.91484,0.87086 5.97591,1.0172 8.95604,0.38137 0.67577,-0.14418 1.3586,-0.29162 1.99678,-0.55655 0.81331,-0.33761 1.55468,-0.82674 2.33216,-1.24024 0.68301,-0.60218 1.42261,-1.14571 2.04897,-1.80661 1.73526,-1.83098 3.00699,-4.12093 4.02921,-6.5412 1.01823,1.75762 2.15846,3.44016 3.53363,4.9444 0.51733,0.5659 1.09233,1.07591 1.63866,1.61386 2.26966,1.93387 4.87473,3.33927 7.87342,3.67884 1.91164,0.21647 2.60065,0.0155 4.49224,-0.22221 5.00439,-1.0323 8.94803,-4.23952 12.67364,-7.54165 0.10692,-0.10085 0.20402,-0.21141 0.31006,-0.31316 0.0955,0.086 0.1299,0.11897 0.23823,0.21755 1.56676,1.24764 3.31702,2.20379 5.26376,2.7001 0.99856,0.25457 1.50317,0.28251 2.51044,0.40256 3.89363,0.23503 6.78232,-1.83428 9.68313,-4.12947 1.5996,-1.44876 3.24947,-2.88213 4.63073,-4.55011 0.9326,-1.12619 1.09514,-1.45139 1.88102,-2.66133 1.51205,-2.42321 2.43088,-5.11934 3.23701,-7.83983 0.86077,-2.95107 1.30824,-6.00081 1.71979,-9.0408 0.42379,-3.15444 0.6774,-6.33796 1.30535,-9.46247 0.14493,-0.72113 0.32838,-1.43376 0.49247,-2.15077 0.99711,-4.18185 2.82284,-8.07351 4.95991,-11.78068 0.89335,-1.46396 1.92213,-2.86419 3.14761,-4.07107 0.56392,-0.55537 1.09438,-0.93086 1.72444,-1.41593 0.41636,-0.30242 0.87794,-0.52821 1.30845,-0.80719 -1.45583,3.85895 -2.37491,8.101 -2.6479,12.02924 -0.0889,1.27991 -0.0393,2.56549 -0.0589,3.84835 0.23798,4.67041 1.34822,9.01308 4.41885,12.66331 1.74686,2.0766 2.50371,2.37834 4.6917,3.86746 0.95865,0.4069 1.88653,0.89513 2.8758,1.2206 3.45907,1.13805 7.74051,1.2332 11.17399,-0.0775 0.93868,-0.35833 1.79631,-0.90086 2.69441,-1.35133 0.78857,-0.63837 1.63593,-1.21035 2.36575,-1.91513 2.16348,-2.08926 3.81996,-4.8297 4.97851,-7.58714 1.1803,-2.80921 1.33093,-3.95255 2.07325,-6.96133 0.36256,-1.92369 0.6522,-3.85749 0.89142,-5.79706 0.64864,1.06661 1.28139,2.14291 1.96991,3.18378 1.31638,1.89659 2.79033,3.75096 4.84466,4.89169 0.41716,0.23164 0.8647,0.40381 1.29708,0.60565 0.70628,0.13591 1.40094,0.36217 2.11874,0.40773 2.82451,0.17928 5.93595,-1.07449 7.97005,-3.00085 0.68827,-0.65182 1.22365,-1.44849 1.83555,-2.17248 0.46978,-0.90607 1.01345,-1.77742 1.40922,-2.71818 0.16496,-0.39213 0.27914,-0.82896 0.42323,-1.24075 1.32896,-0.0914 1.86274,-1.08967 1.70738,-3.60701 -0.0899,-0.8325 -0.21284,-1.6608 -0.3147,-2.49184 0.20257,-1.60877 0.33043,-3.21496 0.33486,-4.72374 0.003,-1.05038 -0.0854,-2.09861 -0.12816,-3.14813 -0.34919,-3.40902 -1.01908,-6.76651 -1.7911,-10.10378 0.0297,-1.52442 0.10798,-2.69294 0.27698,-4.94078 0.3473,-2.9023 0.8042,-5.808 1.60869,-8.62377 0.36498,-1.27745 0.66545,-2.20035 1.36891,-3.29592 0.22515,-0.35065 0.51813,-0.65288 0.77721,-0.97927 0.27148,-0.2202 0.51929,-0.47311 0.81442,-0.66042 1.62033,-1.02838 3.89694,-0.94376 5.71438,-0.79892 1.97225,0.24931 3.4448,0.95434 4.36769,2.77503 0.18381,0.36261 0.31633,0.74888 0.47439,1.12344 1.32929,4.0835 1.49619,8.39746 1.63143,12.65246 0.0417,2.95947 -0.12901,5.93196 0.17518,8.88318 0.19117,1.85478 0.29064,2.04037 0.70228,3.81785 0.6565,2.22122 1.70822,4.42321 3.45302,6.00842 1.18276,1.07458 1.4963,1.11583 2.86753,1.78956 0.59573,0.14147 1.17897,0.35623 1.78749,0.42426 1.85182,0.20701 3.62065,-0.33594 5.15782,-1.34876 1.18634,-0.78167 1.53033,-1.28657 2.48667,-2.3275 1.30354,-1.6242 2.24474,-3.45935 2.89388,-5.41983 1.73449,1.76714 3.80505,3.2116 6.12159,3.91243 0.94396,0.28557 1.94381,0.33626 2.91559,0.50436 1.00439,-0.10515 2.03347,-0.0709 3.01325,-0.31574 3.50121,-0.87495 5.9537,-3.16884 7.62899,-6.30918 0.45054,-0.84455 0.77942,-1.63518 1.05988,-2.41277 0.25864,0.21028 0.47454,0.3885 0.8692,0.70951 2.00306,1.31376 4.25635,1.83666 6.62027,1.33274 1.41451,-0.30153 1.8007,-0.63115 3.0825,-1.31878 0.53271,-0.4547 1.11363,-0.8582 1.59835,-1.36374 2.68409,-2.7993 3.63921,-6.62078 4.40542,-10.29292 0.57519,-2.7255 0.56743,-5.46543 0.36483,-8.2026 0.17439,0.52731 0.33312,1.05975 0.52038,1.58234 1.16877,2.86628 2.94393,6.00291 6.29884,6.63422 0.81116,0.15264 1.65094,0.0142 2.47634,0.0212 0.83394,-0.35492 1.76735,-0.53377 2.50165,-1.06505 1.71121,-1.23809 2.63827,-2.95657 3.48041,-4.81159 0.77482,-1.70677 1.33165,-3.51674 1.85777,-5.32939 0.31118,0.39346 0.59254,0.8153 0.9617,1.15342 1.69087,1.54879 3.8707,2.17764 6.11074,1.50171 1.72776,-0.52135 2.17834,-1.21256 3.41633,-2.38693 0.33545,-0.58463 0.68768,-1.16086 1.00665,-1.7539 0.5203,0.8254 1.11607,1.59387 1.80609,2.27377 0.66244,0.65269 1.47639,1.13169 2.21434,1.69757 0.95782,0.3229 1.86647,0.87902 2.87321,0.96893 5.0359,0.44974 8.6931,-3.36294 11.24996,-7.17114 0.14739,-0.21953 0.26751,-0.45624 0.40566,-0.68161 0.0372,0.0778 0.0655,0.15915 0.10335,0.23668 0.83297,1.70692 2.00838,3.70349 3.33881,5.09788 0.62487,0.65487 1.39006,1.15964 2.08515,1.73943 4.50421,3.42345 9.34577,-2.94672 4.84156,-6.37016 -0.22228,-0.11745 -0.48311,-0.18011 -0.66662,-0.35191 -0.92575,-0.8666 -1.69976,-2.18408 -2.24999,-3.27836 -1.28743,-2.5605 -2.07975,-5.3237 -2.71457,-8.10855 0.28878,-0.99819 0.58075,-1.99899 0.83819,-2.98844 1.02685,-3.94637 1.77125,-7.93417 2.46342,-11.94915 0.40061,-2.74152 0.85597,-5.49758 0.91106,-8.27546 0.0228,-1.15307 -0.0332,-2.55944 -0.339,-3.68866 -0.15812,-0.58391 -0.43199,-1.130445 -0.64802,-1.695513 -1.32158,-1.515478 -1.7397,-2.420182 -3.34657,-2.627746 z m -232.50932,2.092378 c 0.0713,-0.02808 0.19145,0.149626 0.12712,0.191203 -0.26477,0.171105 -0.5712,0.264385 -0.8692,0.373104 0.24705,-0.247722 0.50098,-0.469302 0.74208,-0.564307 z m 28.04118,3.572906 c 0.4729,0.54798 0.31141,0.38986 -0.30644,0.25373 0.10401,-0.0825 0.20427,-0.16919 0.30644,-0.25373 z m 200.65442,0.10336 c 0.0244,0.0357 0.0502,0.22759 0.0894,0.5426 -0.0693,-0.12232 -0.11281,-0.19801 -0.20309,-0.35088 0.0575,-0.13858 0.0868,-0.2312 0.11369,-0.19172 z m -247.93991,0.89141 c 0.1053,-0.0388 0.20873,-0.031 0.30955,0.0398 0.27569,0.19374 -0.3966,0.57387 -0.69092,0.73793 -0.0914,0.051 -0.22004,0.0385 -0.33589,0.0496 0.23579,-0.37649 0.47795,-0.73916 0.71726,-0.82734 z m 216.239,2.46962 c -0.026,0.0963 -0.0494,0.19016 -0.0842,0.29714 -0.0353,0.10863 -0.1199,0.20172 -0.21239,0.26872 -0.0754,0.0546 0.0894,-0.41674 0.0496,-0.2744 -0.0822,-0.11743 0.0325,-0.21308 0.24701,-0.29146 z m 24.91476,11.43496 c 0.37919,0.0299 0.75302,0.0909 1.11414,0.1819 0.0812,0.028 0.10658,0.0181 0.18242,0.0434 0.10136,2.5369 0.27216,4.54403 0.67696,7.24555 0.14042,0.937 0.32494,1.86702 0.50023,2.79828 -0.26664,0.8318 -0.52824,1.68093 -0.82217,2.43396 -0.35137,0.90021 -0.79916,1.75933 -1.19889,2.63912 -1.03577,1.79677 -1.38148,2.55317 -2.61587,4.14135 -0.33972,0.43709 -0.73457,0.82822 -1.10432,1.24023 -0.19101,0.21283 -0.45355,0.37648 -0.57774,0.63407 -0.48967,1.0155 0.61528,-0.0459 -0.1726,0.62529 -0.20333,-0.0803 -0.43639,-0.10833 -0.6103,-0.24082 -0.72001,-0.54858 -1.27527,-1.46557 -1.63401,-2.25826 -0.95769,-2.11601 -1.39619,-4.43775 -1.64228,-6.72982 -0.0577,-2.0115 -0.19547,-2.8722 0.185,-4.8488 0.48435,-2.516 1.66481,-4.81933 3.44062,-6.65851 0.3175,-0.20876 0.6145,-0.45252 0.9524,-0.62631 1.00649,-0.51767 2.18884,-0.71022 3.32641,-0.62064 z m -171.86341,0.21808 c 0.19714,0.64122 0.42581,1.27329 0.71417,1.88567 0.25628,0.54426 0.55697,1.07555 0.87746,1.59163 -0.23213,0.47686 -0.43557,0.96591 -0.70745,1.42576 -0.3755,0.60811 -0.74573,1.28381 -1.24075,1.81022 -0.1219,0.12963 -0.25789,0.24617 -0.38861,0.36742 0.025,-0.22932 0.046,-0.45905 0.0713,-0.68833 0.34284,-3.18879 0.47812,-4.50633 0.67386,-6.39237 z m 135.00519,9.27488 c 0.17492,-0.0453 0.63431,0.075 0.66095,0.18035 0.01,0.0379 -0.0739,0.0376 -0.11266,0.0326 -0.24292,-0.0316 -0.39899,-0.10331 -0.5519,-0.20516 0.004,-0.001 -5.6e-4,-0.007 0.004,-0.008 z m -136.89293,11.1001 c -0.0214,0.0121 -0.0427,0.0246 -0.0641,0.0367 -0.0197,0.0111 -0.0891,0.0119 -0.0677,0.004 0.0873,-0.0307 0.0522,-0.0136 0.13178,-0.0408 z m 156.17806,0.78083 c 0.1793,0.12449 0.32999,0.27301 0.38344,0.48008 0.0138,0.0535 -0.10368,-0.0382 -0.15554,-0.0574 -0.0933,-0.13842 -0.14612,-0.28336 -0.2279,-0.42271 z m -238.70326,0.89659 c 0.036,-3e-5 0.23694,0.0845 0.31161,0.11265 -0.0179,0.2236 -0.0162,0.44834 -0.0367,0.6718 -0.29837,-0.58914 -0.39876,-0.78436 -0.27492,-0.78445 z m 188.76833,2.41742 c 0.74356,3.54361 1.58873,7.06428 2.66392,10.52494 0.225,0.72421 0.47727,1.4396 0.72347,2.15697 -0.0815,1.01901 -0.20153,2.03532 -0.30231,3.05305 -0.6359,3.08543 -0.52034,3.19754 -1.53996,5.91695 -0.17603,0.46945 -0.34651,0.94982 -0.62012,1.36994 -0.50898,0.7815 -1.38663,1.30509 -2.2443,1.58853 -0.31041,0.005 -0.62525,0.0665 -0.93121,0.014 -1.9576,-0.33606 -3.84048,-2.13473 -4.84002,-3.76411 -0.32065,-0.52272 -0.53545,-1.10341 -0.80305,-1.6552 -0.15404,-0.62595 -0.39061,-1.23726 -0.46199,-1.87792 -0.0842,-0.75545 -0.0593,-1.52258 0,-2.28048 0.2745,-3.5797 1.65819,-6.92517 3.5326,-9.94927 0.5352,-0.68884 1.03697,-1.40504 1.60559,-2.06654 0.95268,-1.10826 2.03415,-2.14364 3.21738,-3.03082 z m -147.83284,1.73013 c 0.002,3.6e-4 0.003,6.7e-4 0.004,0.001 0.0128,0.003 -0.0101,0.0513 -0.009,0.0382 0.003,-0.0239 0.002,-0.017 0.005,-0.0393 z m 182.90615,3.07371 c 0.0845,0.0292 0.17398,0.0476 0.25114,0.0925 0.14282,0.083 0.26905,0.20366 0.35761,0.34313 0.0217,0.034 -0.0469,0.1001 -0.0847,0.0863 -0.22634,-0.0826 -0.38579,-0.28606 -0.524,-0.52193 z M 223.14,170.10835 c 0.15645,-0.0712 1.47072,0.006 1.09606,0.0233 0.33197,0.11266 0.57661,0.34991 1.0635,0.7307 1.17779,0.85661 2.33996,1.73477 3.52072,2.58744 1.38307,0.91207 2.62461,1.9775 3.77858,3.16157 0.2967,0.30762 0.54728,0.65588 0.82889,0.9772 -0.23465,3.86199 -0.64037,7.71137 -1.32499,11.52384 -0.23242,0.98888 -0.42428,1.98825 -0.69711,2.96675 -0.87027,3.12128 -2.36235,6.14171 -4.77387,8.35091 -0.33566,0.22239 -0.64107,0.4984 -1.00666,0.66714 -0.43904,0.20263 -0.91261,0.32793 -1.38389,0.43615 -2.08158,0.47798 -4.19131,0.19827 -6.16138,-0.57878 -1.14784,-0.68238 -1.63892,-0.86934 -2.57866,-1.85983 -2.09763,-2.21093 -2.69466,-4.93108 -2.89233,-7.88893 0.002,-0.99593 -0.0545,-1.99374 0.004,-2.98793 0.26122,-4.40395 1.40586,-8.81433 3.31194,-12.79353 0.382,-0.79747 0.86789,-1.54098 1.30173,-2.31149 0.4437,-0.54302 0.83437,-1.13394 1.33118,-1.62884 0.38397,-0.3825 0.82137,-0.6916 1.26091,-0.9958 0.28327,-0.035 0.56504,-0.0823 0.85008,-0.0915 -0.082,0.003 -0.1666,0.005 -0.24805,-0.002 -0.13286,-0.0111 -0.17773,-0.0406 -0.39326,-0.0724 0.0383,-0.025 0.0693,-0.0609 0.10801,-0.0853 0.53524,0.0151 1.07033,0.0348 1.60558,0.0522 0.4582,-0.11283 0.9291,-0.1545 1.39888,-0.18139 z m -89.32736,3.28094 c 0.39017,1.76214 0.64258,3.55732 0.79788,5.3604 0.16673,2.42139 0.28244,3.27336 0.21549,5.72678 -0.091,3.33628 -0.52899,6.6461 -0.97771,9.95185 -0.15539,-1.33667 -0.33617,-2.63366 -0.46147,-4.44418 -0.335,-4.84062 -0.24763,-9.70527 0.1757,-14.53761 0.10802,-0.85318 0.17053,-1.45842 0.25011,-2.05724 z m 35.20819,10.22677 c 0.0385,-0.097 0.41779,0.12528 0.75706,0.5271 0.85686,1.0148 1.37737,2.26175 1.84433,3.48764 0.4551,1.38688 0.58815,1.60351 0.81287,3.06441 0.40234,2.61574 0.066,5.25913 -0.18345,7.87084 -0.24321,1.84524 -0.35438,2.98637 -0.75293,4.80746 -0.71754,3.27859 -1.97284,6.40813 -3.46284,9.40614 -0.42142,0.77845 -0.81978,1.56989 -1.26452,2.33526 -0.32721,0.56312 -0.68782,1.10455 -1.04231,1.65003 -0.20419,-0.41391 -0.41972,-0.82536 -0.62529,-1.23559 -0.3412,-0.79331 -0.70847,-1.57624 -1.02371,-2.38021 -1.63021,-4.15748 -2.8051,-8.5632 -2.69647,-13.05657 0.0743,-0.82352 0.10137,-1.6523 0.22324,-2.47013 0.55541,-3.72713 1.95684,-7.27388 4.19199,-10.3079 0.52781,-0.66566 1.16131,-1.53989 1.81591,-2.127 0.46601,-0.41796 0.84749,-0.60203 1.35909,-0.91106 0.35363,-0.21361 0.33542,-0.0808 0.2341,-0.36535 -0.0623,-0.0982 -0.23,-0.18695 -0.18707,-0.29507 z m -84.002628,0.77618 c 2.424228,6.34297 5.024164,12.61426 7.719943,18.84536 -4.447498,0.7852 -8.892247,1.59877 -13.365076,2.2195 2.01015,-6.98503 3.973451,-13.98256 5.643583,-21.05814 5.42e-4,-0.002 0.001,-0.004 0.0016,-0.007 z" />
  </g>
</svg>
