<svg viewBox="0 0 226.16763 99.183397" version="1.1" id="svg1" xmlns="http://www.w3.org/2000/svg">
  <defs id="defs1"/>
  <g id="layer1" stroke="customColor" fill="none" transform="translate(-3.495455,-8.613502)">
    <path class="calcPath" d="m 16.710389,749.57184 c 9.81039,-0.0229 22.68775,-4.29184 24.25024,-13.8459 1.67355,-10.2332 -12.21679,-16.1801 -20.0235,-11.64021 -8.4056,4.88818 -8.83131,15.40043 -8.52911,23.811 0.35616,9.91248 9.11632,17.65021 20.02797,18.85485 6.43299,0.7102 11.82289,-8.04648 2.99255,-9.22729 -9.79297,-1.30954 -17.45864,7.25096 -20.01343,16.56724 -2.28405,8.32898 -2.04008,22.05888 8.437,24.05661 9.63551,1.83727 21.13208,-2.15549 26.03449,-10.95152 2.65341,-4.76082 6.26222,-24.63531 5.86697,-16.77246 -0.44782,8.9088 0.58743,35.64041 1.22024,26.62249 0.56756,-8.08818 -3.8317,-25.14111 6.59493,-24.53983 7.98571,0.46051 8.85608,10.6859 9.6283,16.93019 0.26551,2.14696 -0.98158,11.5877 0.41521,4.39534 1.38886,-7.15154 -0.82838,-20.34815 7.46584,-21.12188 11.12518,-1.03782 6.88613,12.01904 6.31873,18.44101 -0.94239,10.66628 7.23867,4.21181 11.07853,-1.26413 3.541071,-5.04987 9.200201,-21.71198 9.990511,-15.86457 1.00031,7.40113 0.73256,29.80798 1.08298,22.35968 0.32946,-7.00286 -2.40666,-17.93715 4.94516,-21.00033 9.26898,-3.86198 10.0816,9.4293 10.31063,15.79716 0.0991,2.7562 -0.45955,11.03191 0.31648,4.01803 0.78267,-7.07381 -2.29804,-21.75893 5.63244,-21.23861 11.58182,0.75988 0.23744,17.92876 6.69495,23.79786 6.89701,6.26856 8.21258,-7.26298 7.22789,-12.21719 -1.62049,-8.15313 6.25305,-13.80586 13.6829,-15.18634 3.26198,-0.60608 8.05885,3.09829 2.02968,1.90835 -9.98647,-1.97096 -15.25353,4.66225 -15.74766,15.37777 -0.41604,9.02188 11.39644,15.11919 16.39986,5.94769 5.20438,-9.53987 3.01012,-41.79125 4.50845,-31.38443 1.3702,9.51691 -3.11725,19.49034 -0.38551,28.59891 2.66035,8.87052 13.37354,0.81355 17.55513,-7.26239 10.12921,-21.02543 22.91246,-16.41223 42.03369,-14.66991" id="path29" transform="translate(-5.743965,-709.54913)"/>
    <path  class="calcPath" d="m 15.45991,805.54127 c 56.540918,3.4399 96.13983,2.01913 121.46555,2.66832 65.13022,1.66952 63.11301,-100.37099 70.7634,-85.46742 3.00791,5.85964 20.64424,42.60248 24.6182,91.50386" id="path30" transform="translate(-5.743965,-709.54913)"/>
  </g>
</svg>

