<svg viewBox="0 0 363.952 112.82777" xmlns="http://www.w3.org/2000/svg">
  <g fill="none">
    <path d="m 10.902067,18.748675 c 2.147952,-2.160773 4.241391,-4.384835 6.215346,-6.706318 0.754059,-1.039677 1.716504,-1.945269 2.314825,-3.0905145 1.389586,-3.0215098 -0.850806,-1.3640614 -6.679188,-4.5173126 -0.16962,2.7296977 -0.544307,5.4390098 -0.755325,8.1660831 -0.376216,3.654122 -0.255943,7.282317 0.454075,10.88198 0.767104,3.304392 1.797101,5.309391 4.294767,7.607901 4.943493,3.820332 9.386076,6.869372 15.359138,8.237844 2.573047,0.492183 5.002681,0.03515 7.406982,-0.88655 2.795158,-1.056415 4.839089,-3.172891 6.691085,-5.432885 2.394963,-3.2434 3.634335,-7.06631 4.484848,-10.959217 0.373166,-2.390066 1.004097,-4.775422 0.995702,-7.207714 -0.02175,-1.099764 -0.315966,-2.14418 -0.667285,-3.175277 -0.894482,-3.436096 1.710724,-0.892316 -7.923445,-4.9726293 -0.304356,-0.1289024 -0.204769,0.632679 -0.245676,0.9606653 -0.154308,1.2371879 0.04625,2.1948671 0.181962,3.463111 0.932137,6.744865 2.020027,13.465229 2.959195,20.209261 1.016717,6.608678 1.289169,13.269084 1.168212,19.942595 -0.181436,2.772222 -0.215323,5.590305 -0.840663,8.312402 -0.302951,1.318741 -0.563674,1.865235 -1.048674,3.134188 -1.224838,3.126777 -3.259907,5.688882 -5.932135,7.6846 -2.447147,1.619549 -5.36516,2.198875 -8.162613,2.921542 -3.132421,0.64501 -6.228011,0.494552 -9.250053,-0.512524 -0.446604,-0.213378 -0.909096,-0.396274 -1.339812,-0.640141 -0.429347,-0.243088 -1.640584,-1.096886 -1.234133,-0.817189 2.19181,1.508276 4.337851,3.087031 6.590372,4.503041 0.415261,0.261046 -0.730334,-0.657918 -1.056493,-1.02426 -0.738563,-0.829561 -1.003652,-1.371309 -1.569624,-2.315257 -1.154531,-2.301595 -1.758254,-4.830273 -1.596938,-7.400883 0.246712,-2.005629 1.150148,-3.706651 2.663621,-5.018939 1.795068,-1.261219 3.828229,-1.853044 5.967383,-2.180011 1.893168,-0.375555 3.695546,0.04303 5.502851,0.592169 1.922362,0.681951 3.760788,1.550919 5.591207,2.446978 2.696792,1.791891 7.62531,4.958998 -4.581287,-3.25777 -0.390445,-0.262823 0.74575,0.575467 1.099212,0.886254 0.819864,0.720881 1.273683,1.241092 2.016527,2.031979 3.694507,4.247023 8.326038,6.93039 12.983861,10.170012 1.946544,1.129924 3.371273,1.375402 5.499512,0.613629 2.083972,-0.765574 3.26417,-1.756196 4.681382,-3.416459 1.443971,-1.906113 2.185138,-4.159517 2.895399,-6.407676 0.67293,-2.067676 1.076885,-4.208359 1.706697,-6.287706 0.759949,-2.12515 2.255491,-3.831143 3.734176,-5.489327 1.854716,-2.077796 4.448767,-3.071082 6.973821,-4.068505 1.503045,-0.511162 3.104179,-1.04303 4.717814,-0.773425 0.79425,0.132704 1.301626,0.41896 2.023737,0.745977 0.884312,0.563274 1.081646,0.677688 1.957965,1.283065 0.306324,0.211614 1.216316,0.859266 0.910497,0.646927 -11.915645,-8.273386 -7.73498,-5.572514 -5.239065,-3.495101 0.99568,0.861579 1.968273,1.738913 2.851137,2.715411 0.54782,0.640133 0.958932,1.374511 1.328907,2.126911 1.509678,3.050159 2.706079,1.759353 8.387887,4.907646 0.04484,-1.504003 -0.574398,-2.86216 -1.299266,-4.140473 -2.537997,-3.57211 -6.631839,-5.559369 -10.217912,-7.964673 -0.509873,-0.341992 -1.141889,-0.451577 -1.709338,-0.685956 -1.544849,-0.633973 -3.206231,-0.778118 -4.856702,-0.851622 -1.711288,0.125664 -3.401063,0.3713 -5.083455,0.697212 -2.403507,0.333211 -3.089982,0.755142 -4.424119,2.809573 -1.265796,2.337117 -2.013064,4.909264 -2.720052,7.458887 -0.604869,2.320462 -1.138827,4.640876 -1.248809,7.040084 -0.04369,2.612937 0.773633,5.080399 1.871114,7.416252 1.105165,2.150152 2.694596,3.980352 4.268216,5.794637 3.321706,3.342081 7.89712,7.335157 11.999836,8.676203 1.790031,0.542697 3.500773,0.347305 5.247508,-0.216323 2.026933,-0.662731 3.60172,-2.001666 5.015026,-3.546827 1.416042,-1.578671 2.349026,-3.521689 3.127303,-5.476158 0.787826,-1.773235 1.288291,-3.646146 1.857571,-5.494269 0.598514,-1.672873 0.87526,-3.422922 1.004681,-5.187042 0.05982,-1.714931 -0.247695,-3.421483 -0.702979,-5.068784 -0.299307,-0.850297 -0.60596,-1.699252 -0.956069,-2.530211 -0.401175,-1.053827 -0.656739,-2.15174 -0.953818,-3.236648 -1.361284,-3.470529 -4.066278,-2.750809 -8.806217,-5.093229 0.242668,2.627191 1.008417,5.172903 1.690471,7.711496 0.783682,2.874036 1.803452,5.670502 2.952181,8.416202 0.778192,2.197944 1.897856,4.204841 3.337245,6.031291 2.677721,2.775559 6.324864,4.767868 9.383544,6.830727 0.67051,0.452212 1.4466,0.31388 2.183,0.202673 2.03089,-0.623273 3.09711,-2.640586 3.98169,-4.424346 1.11321,-2.609271 1.60644,-5.417408 1.95488,-8.215786 0.37488,-2.6869 0.79597,-5.364316 0.82437,-8.081031 -0.0282,-1.831436 -0.10648,-3.658362 -0.47105,-5.45614 -0.90443,-3.871034 3.3346,-0.43066 -8.47236,-5.136168 -0.27613,-0.110048 -0.0835,0.588613 -0.12677,0.882705 -0.0534,0.363445 -0.10881,0.726599 -0.16322,1.089898 -0.53812,3.216804 -0.66417,6.488705 -0.66885,9.74484 0.022,3.21786 0.3888,6.410018 1.24126,9.512088 0.69043,2.489994 1.87976,4.757312 3.39541,6.835106 2.58996,2.99925 6.23586,4.784489 9.56007,6.913443 0.26872,0.172103 1.87072,0.521459 2.26323,0.621231 1.98658,0.452033 3.74619,-0.363966 5.43388,-1.321456 2.34995,-1.473854 3.9566,-3.738364 5.46851,-6.006465 1.63877,-2.467422 2.8856,-5.15007 3.99091,-7.888766 1.06328,-2.574026 1.79384,-5.271757 2.50109,-7.961083 0.46845,-1.969105 0.71324,-3.982222 0.98214,-5.985962 0.5371,-3.821882 1.14222,-1.182005 -8.23714,-5.539293 -0.25104,-0.11662 -0.17527,0.526008 -0.23757,0.795708 -0.0855,0.370099 -0.13681,0.747276 -0.20521,1.120913 -0.43839,2.89329 -0.77769,5.783532 -0.82043,8.710575 0.0544,2.946908 0.13439,5.893107 0.19186,8.840015 -0.007,2.564365 0.0396,5.116819 0.26341,7.671527 0.17207,1.421144 0.4842,2.820419 0.78119,4.219451 0.25542,1.153136 0.61088,2.275165 1.02315,3.380589 1.72782,3.690909 5.52942,6.889091 9.56328,7.575727 1.15837,0.172551 2.24811,-0.129997 3.24416,-0.713763 1.47956,-0.975257 2.37135,-2.442525 3.23801,-3.942819 0.9748,-1.965547 1.86928,-3.982423 2.53524,-6.074772 0.68792,-2.187575 1.06339,-4.460801 1.40497,-6.723957 0.26077,-2.245124 0.54412,-4.487074 0.90778,-6.718392 0.52388,-2.61497 1.33653,-5.155978 2.41619,-7.591856 0.90848,-2.266773 2.26411,-4.126214 4.1699,-5.631246 1.94159,-1.395424 4.11375,-2.413395 6.41415,-3.045693 1.07763,-0.239199 2.13423,-0.52691 3.13022,0.06422 2.49454,2.374765 1.71831,1.758963 -7.55085,-5.236509 -0.23992,-0.18107 0.97937,-0.624647 0.13487,-0.810654 -1.57005,-0.14582 -3.03261,0.389233 -4.46169,0.973198 -1.93676,0.839166 -3.51678,2.262645 -5.06577,3.660936 -1.98414,2.083896 -3.03119,4.715005 -3.83477,7.426693 -1.072,3.508052 -1.88835,7.072188 -2.54691,10.678274 -0.54117,2.762723 -0.7096,5.553165 -0.60278,8.359536 0.0832,1.472438 0.49724,2.840593 1.22732,4.111692 2.73787,3.635351 6.91254,6.411983 11.34481,7.453648 1.33334,0.300281 2.64377,0.344075 3.98045,0.09666 1.36425,-0.33052 2.42349,-1.071692 3.45937,-1.983473 1.52552,-1.565333 2.55646,-3.474942 3.41701,-5.462651 1.11937,-2.921468 1.83718,-5.975535 2.62922,-8.996682 0.67092,-2.812505 1.53158,-5.574488 2.59789,-8.261186 1.11427,-2.830671 2.54949,-4.646263 4.80862,-6.623592 1.9083,-1.427594 4.09536,-2.308654 6.47064,-2.444917 1.21304,0.108606 2.23962,0.660771 3.27074,1.262311 0.40081,0.233826 1.56866,0.990648 1.18971,0.722847 -8.0919,-5.718434 -8.59509,-6.200251 -5.52229,-3.633393 2.15911,1.924061 3.59638,4.334195 4.51115,7.048249 0.94577,3.08874 0.34387,6.246555 -0.35168,9.315513 -0.67376,2.479664 -1.55713,5.052486 -3.41068,6.919439 -0.32054,0.32285 -0.69,0.593127 -1.035,0.88969 -2.10262,1.718752 -4.54389,2.44679 -7.17943,2.814373 -2.32576,0.329004 -4.6339,0.1075 -6.88446,-0.517136 -1.94927,-0.552019 -3.8432,-1.272582 -5.71746,-2.037702 -0.80781,-0.118559 -1.46672,-0.738899 -2.23919,-0.937611 -0.099,-0.02545 -0.36033,-0.03178 -0.30212,0.05222 0.80496,1.161563 1.75882,2.212538 2.63823,3.318806 0,0 0.1969,0.169823 0.1969,0.169823 v 0 c 2.65242,1.952702 4.74796,3.899392 7.8165,4.868468 1.83918,0.700784 3.69859,1.362406 5.63498,1.744255 2.3172,0.43125 4.64465,0.519094 6.96309,0.0034 2.64202,-0.637281 5.08012,-1.759326 7.1413,-3.567843 0.35482,-0.349861 0.73562,-0.675204 1.06446,-1.049589 1.83311,-2.086972 2.76944,-4.768273 3.47781,-7.406317 0.75893,-3.173698 1.53651,-6.467089 0.70428,-9.708272 -0.85443,-2.959248 -2.10995,-5.341016 -4.31171,-7.543408 -3.7466,-3.52789 -1.36791,-1.390629 -10.27509,-7.46252 -1.44298,-0.98366 -3.15814,-1.609362 -4.90904,-1.556951 -2.4956,0.388641 -4.80942,1.364425 -6.77737,2.976475 -2.28171,2.084205 -3.9083,4.065238 -5.06275,6.980772 -1.15252,2.708206 -1.90426,5.545024 -2.65096,8.387998 -0.74841,2.979433 -1.39512,6.001729 -2.57339,8.850672 -0.79908,1.848911 -1.78669,3.622715 -3.26293,5.024472 -0.938,0.773525 -1.91132,1.390073 -3.15331,1.523294 -1.24158,0.136956 -2.48662,-0.06461 -3.68538,-0.396471 -0.5545,-0.185076 -0.76413,-0.236468 -1.29346,-0.487283 -0.20054,-0.09502 -0.76797,-0.442068 -0.58802,-0.3122 13.13499,9.479111 9.28838,6.73458 6.61584,4.652724 -0.8265,-1.10472 -1.34855,-2.315114 -1.52582,-3.694718 -0.24654,-2.76061 -0.15983,-5.502238 0.35645,-8.235101 0.62517,-3.574886 1.38794,-7.118945 2.47275,-10.586304 0.80119,-2.518939 1.74927,-5.001562 3.65237,-6.915044 1.45592,-1.329225 2.95612,-2.636483 4.79091,-3.419065 1.41624,-0.52288 2.80578,-0.798005 4.32089,-0.647557 0.14338,-0.02461 0.3084,0.0058 0.43016,-0.07383 0.4996,-0.32671 0.74814,-0.943279 0.69367,-0.98619 -2.60703,-2.053759 -5.38003,-3.887779 -8.08946,-5.804426 -0.102,-0.07216 -0.27594,0.02881 -0.36959,-0.06246 -1.15345,-0.130698 -2.27532,0.191953 -3.37456,0.513837 -2.33548,0.808435 -4.54509,1.940028 -6.55995,3.376652 -0.9097,0.721575 -1.23733,0.909487 -1.98694,1.772031 -1.07859,1.241095 -1.73262,2.780766 -2.45899,4.235098 -1.06887,2.506726 -1.96005,5.092417 -2.60624,7.741656 -0.40246,2.249127 -0.60824,4.530095 -0.81831,6.803903 -0.30848,2.221436 -0.68761,4.446431 -1.34256,6.594684 -0.58841,2.045263 -1.40945,4.018211 -2.35356,5.924206 -0.80547,1.327674 -1.62933,2.656805 -3.02134,3.441922 -0.89988,0.379468 -1.86052,0.48654 -2.76654,0.05396 -2.3707,-1.68371 4.73421,3.377542 7.10529,5.06071 0.1116,0.07922 -0.22077,-0.162005 -0.32658,-0.248799 -0.41037,-0.336618 -0.67322,-0.744386 -0.92953,-1.207727 -0.47266,-1.029743 -0.78281,-2.126462 -1.03632,-3.228502 -0.40366,-1.35886 -0.60679,-2.787322 -0.96423,-4.161594 -0.27898,-2.544191 -0.45486,-5.083204 -0.3733,-7.646723 -0.0366,-2.943106 -0.13876,-5.884687 -0.20366,-8.827203 -0.0302,-2.86942 0.27743,-5.689111 0.79688,-8.512054 0.0692,-0.331083 0.12315,-0.665715 0.20755,-0.993251 0.0579,-0.224499 0.39701,-0.512286 0.21854,-0.660265 -9.77583,-8.106145 -7.94514,-8.749614 -7.88376,-4.908195 -0.0231,2.016702 -0.20176,4.031059 -0.6504,6.001525 -0.63962,2.671215 -1.36932,5.334183 -2.39313,7.886258 -1.05195,2.695403 -2.24793,5.328679 -3.85146,7.749656 -1.43375,2.149634 -2.94803,4.309102 -5.23896,5.622277 -1.61984,0.843206 -3.24086,1.323131 -5.04194,0.72182 -0.36683,-0.109333 -1.07006,-0.312303 -1.42387,-0.445206 -0.23564,-0.08852 -0.89636,-0.446871 -0.69458,-0.29637 12.19804,9.098137 7.86862,5.804881 5.37196,3.727712 -1.60863,-1.923278 -2.78586,-4.139031 -3.56615,-6.523797 -0.89697,-3.032022 -1.38041,-6.155542 -1.40928,-9.323345 -0.0555,-3.178583 0.14223,-6.368672 0.74098,-9.495967 0.0754,-0.355719 0.1544,-0.7107 0.22624,-1.067158 0.0535,-0.265514 0.36252,-0.630988 0.14979,-0.798631 -18.000199,-14.184744 -8.61362,-7.538387 -7.63551,-4.711121 0.53681,1.752645 0.73245,3.548753 0.78551,5.380025 0.0554,2.693455 -0.33229,5.367789 -0.6889,8.032752 -0.30663,2.693609 -0.7819,5.39832 -1.83722,7.910938 -0.76832,1.477304 -1.62561,3.391051 -3.493446,3.558559 -0.65909,-0.07349 -0.65677,-0.01778 -1.266283,-0.310388 -0.20108,-0.09653 -0.759576,-0.46659 -0.578413,-0.336465 12.351352,8.871569 8.191462,5.899621 5.605692,3.897005 -1.57805,-1.661946 -2.71112,-3.651266 -3.509893,-5.796547 -1.173049,-2.710675 -2.223178,-5.469538 -3.017314,-8.317846 -0.7126,-2.408053 -1.412208,-4.858396 -1.585047,-7.374634 -2.790256,-1.689912 -5.580512,-3.379821 -8.370769,-5.069731 0.338461,0.06879 0.561571,0.33955 0.770308,0.597895 0.614757,0.923044 0.639818,2.163992 1.010899,3.195894 0.269227,0.866772 0.653357,1.702752 1.01224,2.53524 0.614953,1.528072 0.89897,3.16988 0.985213,4.810376 -0.106018,1.706518 -0.296201,3.409228 -0.833876,5.042429 -0.563912,1.831597 -1.020641,3.700857 -1.767459,5.471732 -0.717521,1.865934 -1.601547,3.694639 -2.967995,5.179562 -1.306227,1.446911 -2.769786,2.639563 -4.700006,3.141763 -1.65731,0.395714 -3.294274,0.384832 -4.889582,-0.288012 -3.18217,-1.630981 -0.788249,-0.445627 6.10017,4.448572 0.247383,0.175763 -0.510688,-0.32893 -0.753369,-0.51113 -0.834732,-0.626692 -1.619226,-1.335188 -2.333578,-2.094767 -1.62905,-1.72035 -3.187353,-3.54916 -4.410133,-5.584462 -1.149075,-2.162252 -1.991574,-4.508035 -2.053264,-6.980838 0.09074,-2.334827 0.578556,-4.588209 1.143582,-6.853222 0.692753,-2.451068 1.256432,-4.990798 2.560809,-7.206543 1.282877,-1.818405 1.902947,-1.794614 4.01451,-2.180239 1.636466,-0.260172 3.287649,-0.541546 4.949261,-0.515844 1.601811,0.14175 3.180133,0.406468 4.650412,1.096465 3.070461,1.383318 6.710341,4.391443 -5.22918,-4.034192 -0.252783,-0.178388 0.508664,0.353557 0.747382,0.550367 0.645578,0.532241 0.728615,0.689629 1.272648,1.332011 0.77469,1.026676 1.502831,2.279218 1.485273,3.606728 4.818071,2.996592 9.629833,8.06377 7.989951,4.619451 -0.416105,-0.800735 -0.828005,-1.611734 -1.336651,-2.357152 -0.810837,-1.114179 -1.815055,-1.998128 -2.849187,-2.903702 -3.872508,-3.432736 -8.19962,-6.410116 -12.753453,-8.852791 -2.695901,-0.833813 -4.544978,-0.416346 -7.139509,0.592555 -2.630249,1.089089 -5.303094,2.2166 -7.253028,4.374269 -1.613921,1.733087 -3.215741,3.515463 -4.060349,5.770272 -0.617537,2.079804 -1.098158,4.196455 -1.705229,6.279287 -0.646033,2.138106 -1.267362,4.310134 -2.681047,6.095222 -1.181774,1.39418 -2.559629,2.462673 -4.342971,2.98858 -1.984713,0.419378 -3.322624,-0.166121 -4.985342,-1.241504 2.232678,1.572447 4.473088,3.133968 6.698032,4.71734 0.305089,0.217115 -0.639603,-0.39194 -0.937963,-0.618212 -1.358821,-1.030515 -2.512918,-2.309278 -3.707903,-3.51537 -0.526656,-0.585372 -1.407528,-1.582169 -1.966518,-2.131232 -3.397811,-3.33747 -7.582437,-5.801458 -11.685503,-8.188267 -1.858195,-0.893458 -3.738782,-1.74521 -5.720403,-2.333159 -1.914133,-0.476682 -3.797073,-0.693812 -5.750914,-0.259305 -2.261017,0.443031 -4.403223,1.2045 -6.276256,2.587151 -1.728454,1.529379 -2.717616,3.273745 -3.156518,5.557541 -0.269827,2.698089 0.234829,5.370558 1.281991,7.871447 0.466301,0.873329 0.871489,1.70548 1.458634,2.508948 3.024993,4.139502 7.921584,6.744428 12.574543,8.736137 3.15682,0.820669 6.359924,0.842018 9.546119,0.0837 2.877804,-0.764268 5.856917,-1.527604 8.24738,-3.389813 2.46721,-2.374876 4.403325,-5.215427 5.738357,-8.37557 0.509392,-1.366571 0.7689,-1.90118 1.064591,-3.327665 0.583872,-2.81677 0.537554,-5.724564 0.666993,-8.58199 -0.07625,-6.757289 -0.366702,-13.513025 -1.377,-20.205324 -0.941385,-6.640066 -1.968603,-13.271213 -2.613734,-19.94859 -0.03673,-0.639222 -0.09642,-1.277538 -0.110181,-1.917666 -0.0084,-0.388568 0.01323,-0.777701 0.04392,-1.165144 0.0145,-0.182949 0.237961,-0.432446 0.09142,-0.542925 -2.346508,-1.769037 -4.881878,-3.2725599 -7.322815,-4.9088397 0.368387,0.061952 0.215061,-0.035948 0.381931,0.3898347 0.383773,1.017652 0.920541,1.9729772 0.996358,3.086368 0.322384,2.402679 -0.229455,4.878399 -0.483101,7.259568 -0.765881,3.790975 -1.88423,7.517482 -4.237645,10.656947 -1.795582,2.164675 -3.766117,4.113694 -6.488219,5.053314 -2.289669,0.819049 -4.59971,1.140341 -7.00891,0.593471 -1.461535,-0.38648 -2.848835,-0.837846 -4.236405,-1.446051 -2.565567,-1.124554 -8.321224,-4.719659 1.967751,2.11546 C 21.275198,32.58454 20.199921,30.740566 19.360157,27.516118 18.527689,23.989104 18.346514,20.4219 18.74614,16.812775 18.983254,14.104905 19.355958,11.418672 19.736681,8.7281791 6.8880629,-0.23269732 13.644433,1.3934866 12.698899,4.408039 12.234814,5.5475248 11.392832,6.4820783 10.734453,7.509462 8.9193533,9.901638 6.9098201,12.199531 4.5270226,14.041736 Z" transform="translate(-4.5270226 -2.018756)"/>
    <path d="m 229.7033,22.866135 c -1.59889,3.577554 -1.97944,7.593598 -2.44889,11.444073 -0.6256,6.939725 -0.85681,13.917848 -0.77724,20.88392 0.0877,4.556437 0.1448,9.152929 1.03139,13.642181 0.5028,2.545948 0.81337,3.235791 1.61448,5.640615 0.71615,1.623631 1.05801,2.693146 2.14062,4.087487 0.40061,0.515974 0.83634,1.022302 1.36469,1.406448 3.28256,2.386671 5.80719,5.455351 9.78254,5.691495 0.63474,0.03771 1.2699,-0.0679 1.90486,-0.101852 0.62443,-0.175093 1.2783,-0.267311 1.8733,-0.525282 3.10071,-1.344367 5.0783,-4.110406 6.5085,-7.029199 0.12239,-0.545706 0.32127,-1.079741 0.36717,-1.637115 0.28,-3.400353 -2.47072,-5.560213 -4.80068,-7.506991 -3.48457,-2.586029 -6.93335,-5.217403 -10.19961,-8.076136 -1.39544,-1.196234 -2.6178,-2.570914 -3.93332,-3.848949 -0.0541,0.04788 -0.6408,-0.592355 -0.65006,-0.581414 -0.51183,0.604393 0.0399,0.299431 0.23047,0.230881 2.84991,-1.137661 5.95975,-1.429049 8.97333,-1.874714 4.45687,-0.374194 8.84946,-1.065403 13.18216,-2.174607 1.9085,-0.617974 3.97801,-0.870477 5.71856,-1.922598 0.40889,-0.21505 0.66689,-0.490143 0.9001,-0.876728 1.53329,-2.884919 0.61763,-0.979861 -7.9581,-4.431491 -0.29655,-0.119358 0.005,0.639361 0.0137,0.958911 0.015,0.550656 0.0307,1.101376 0.0576,1.651574 0.0877,1.78942 0.20151,3.577482 0.29345,5.366692 0.31204,6.671355 0.49085,13.359066 0.285,20.036425 -0.0385,0.661511 -0.0656,1.323787 -0.11555,1.984534 -0.11361,1.503476 -0.0842,1.143476 -0.3336,2.365568 -0.0314,0.154024 -0.22196,0.375795 -0.091,0.46274 8.28036,5.497116 7.80706,7.885853 8.12373,3.872201 0.58151,-4.073954 0.85811,-8.184325 1.09571,-12.29047 0.12056,-3.784941 0.44011,-7.556349 1.01213,-11.299282 0.51155,-2.224016 0.75676,-4.625018 1.98898,-6.607845 0.22611,-0.363847 0.51319,-0.686075 0.76975,-1.029112 0.33327,-0.307923 0.63511,-0.653759 0.99976,-0.923767 2.12881,-1.5763 5.49222,-2.350741 8.04246,-2.927688 2.30835,-0.520179 4.61012,-0.674153 6.94586,-0.345133 0.19199,0.03452 0.39122,0.04088 0.57592,0.103565 0.13867,0.04706 0.25951,0.137282 0.37981,0.220793 0.0951,0.06604 0.35939,0.291435 0.26382,0.226023 -17.66197,-12.090551 -10.03353,-6.028383 -7.2336,-5.068092 0.31879,0.0056 0.21351,-0.435353 0.19118,0.392131 -1.08275,4.650526 -1.30714,9.374572 -1.26796,14.130261 0.24157,4.209161 0.78097,8.461923 2.43068,12.380346 0.81401,1.933424 1.21364,2.381094 2.32891,4.075324 2.96804,3.801782 6.85504,5.83842 11.01707,8.649211 0.65809,0.444442 1.9101,0.956111 2.7338,0.966581 0.51779,0.0066 1.02055,-0.176273 1.53083,-0.264411 3.83582,-1.504498 6.10288,-4.894009 8.05415,-8.336561 2.15652,-4.210124 3.51092,-8.766357 4.72557,-13.320892 0.63296,-2.337779 0.96226,-4.737735 1.20314,-7.142543 0.0478,-1.099484 0.0475,-2.200746 0.0603,-3.301199 0.22654,-3.353321 0.12189,-1.061661 -8.20722,-5.176102 -0.26045,-0.128669 -0.13327,0.565542 -0.20092,0.848075 -0.12261,0.512048 -0.24604,1.023895 -0.36978,1.53566 -0.8272,3.42048 -0.3954,1.45247 -1.18385,5.580967 -1.13385,6.6396 -2.05259,13.383919 -1.52263,20.132828 0.086,1.095177 0.26493,2.181061 0.39741,3.271594 0.45844,2.373681 1.4138,6.019943 3.54602,7.546065 8.51681,6.095855 5.28902,5.758963 10.14984,5.874949 0.53869,-0.238842 1.12379,-0.392621 1.61605,-0.716529 3.72684,-2.452352 5.93844,-7.970475 7.59082,-11.882157 2.7937,-7.031305 5.06251,-14.252308 7.47479,-21.418706 2.17329,-6.22346 4.53062,-12.376856 6.51145,-18.66533 1.06807,-3.597015 1.91183,-7.262368 1.82459,-11.028597 -0.33223,-4.437775 -3.75076,-4.703935 -8.98353,-7.070783 -0.38142,-0.172532 -0.64479,0.537901 -0.92842,0.845815 -0.37632,0.408512 -0.69715,0.864842 -1.04574,1.297263 -3.21913,4.684601 -4.92675,10.160763 -6.23824,15.633384 -1.47407,7.330196 -1.34517,14.831475 -0.94318,22.25708 0.40878,4.765818 0.72495,9.59154 1.93122,14.241941 0.57195,2.204961 0.94813,2.967625 1.76797,5.007536 1.06754,2.143273 2.34233,4.473244 4.35462,5.901796 8.76403,6.221748 5.29701,5.759058 10.08075,6.096518 0.41384,-0.172161 0.87315,-0.26108 1.24148,-0.516487 2.68978,-1.865239 4.10451,-6.401234 5.00015,-9.35264 1.32789,-4.851329 2.27547,-9.802529 3.19611,-14.745264 0.56571,-2.898738 1.21478,-5.780034 1.85344,-8.663005 0.0259,-0.146601 0.19822,-0.352095 0.0779,-0.439804 -2.68616,-1.958311 -5.35144,-3.988599 -8.28832,-5.545913 -0.29942,-0.158782 -0.33922,0.588447 -0.47532,0.898848 -0.70212,1.601131 -0.95499,3.333541 -1.26616,5.037995 -0.55555,4.54997 -0.95663,9.395626 0.68365,13.788945 0.31158,0.834546 0.76703,1.608061 1.15054,2.412093 0.4771,0.683858 0.89707,1.411361 1.43132,2.051571 0.47784,0.572616 0.98266,1.142209 1.59234,1.571776 3.10809,2.189945 6.95119,6.368634 11.42532,6.485942 1.75842,0.0461 2.36527,-0.334785 3.98357,-0.905869 0.60134,-0.348645 1.2555,-0.619014 1.80406,-1.045933 2.67044,-2.078259 4.31363,-5.406723 5.24372,-8.578836 0.27186,-0.927256 0.44239,-1.881267 0.6636,-2.821901 0.69422,-3.935314 0.84847,-7.934571 0.93044,-11.921042 -0.22866,-4.577154 -1.83838,-3.921953 -8.46095,-7.555119 -0.33065,-0.181401 -0.67252,1.028388 -0.95708,1.869532 -0.27588,1.556211 -0.4549,2.308453 -0.51488,3.991782 -0.21778,6.113378 0.54083,12.277355 1.1108,18.34996 0.63661,7.385275 1.18578,15.006979 -0.92377,22.232146 -0.42627,1.460008 -0.9235,2.917952 -1.65041,4.253962 -0.68086,1.25134 -1.69061,2.29336 -2.53593,3.44005 -3.66501,3.10172 -6.20099,4.37612 -11.11173,4.18026 -1.30027,-0.0519 -2.57178,-0.39937 -3.858,-0.59696 -0.85812,-0.13182 -1.77763,-0.0479 -2.57503,-0.39127 -1.25759,-0.54156 -2.30881,-1.47264 -3.46321,-2.20897 0,0 0.18709,0.18056 0.18709,0.18056 v 0 c 5.01951,3.67942 10.27938,8.32294 16.77522,8.9459 2.62085,0.25135 6.01921,-0.74717 8.24436,-2.0761 1.23867,-0.73977 2.23488,-1.8253 3.35232,-2.73795 0.85342,-1.2422 1.89503,-2.37425 2.5603,-3.72658 0.70056,-1.42407 1.11643,-2.97899 1.49651,-4.51986 1.8248,-7.39818 1.29307,-15.094415 0.76948,-22.606851 -0.54636,-7.057652 -1.45629,-14.388623 0.20455,-21.359164 1.31414,-3.081464 -0.0391,-0.728702 -7.57407,-6.172128 -0.0906,-0.06548 0.23572,0.05762 0.30073,0.148595 0.15637,0.21881 0.32449,1.164169 0.35973,1.32819 0.31443,3.998288 0.30625,8.033469 -0.33764,12.002145 -0.93601,3.955098 -2.13473,8.144002 -5.61607,10.672072 -0.51477,0.373822 -1.11948,0.604748 -1.6792,0.907121 -1.53168,0.439471 -2.02896,0.74571 -3.65678,0.557956 -0.63463,-0.0732 -2.30235,-0.931481 -1.85717,-0.473321 1.62772,1.67508 3.6753,2.884268 5.55157,4.275267 0.60444,0.448101 -1.21092,-0.904271 -1.73403,-1.445106 -0.57343,-0.592876 -1.02552,-1.292125 -1.53828,-1.938184 -0.41924,-0.760466 -0.91641,-1.482921 -1.25773,-2.281396 -1.77813,-4.159528 -1.35728,-8.904161 -0.67312,-13.24392 0.29895,-1.200121 0.54975,-2.404189 0.99255,-3.562337 0.13081,-0.34214 0.2997,-0.669004 0.47009,-0.993251 0.0587,-0.111585 0.3144,-0.233069 0.21526,-0.31092 -2.55553,-2.006695 -5.21472,-3.880456 -7.894,-5.718685 -0.099,-0.0679 0.0485,0.235071 0.0728,0.352605 -0.33274,3.001359 -0.78843,5.986089 -1.37252,8.949909 -0.87686,4.916831 -1.82362,9.839859 -3.11568,14.6646 -0.79008,2.479881 -2.19155,7.142985 -4.74435,8.428143 -0.28448,0.143211 -0.62564,0.119655 -0.93845,0.179483 -3.55484,-1.035442 -1.52345,-0.569053 5.43528,4.386588 0.43339,0.308634 -0.86072,-0.628269 -1.2596,-0.980353 -1.50228,-1.32598 -2.70878,-2.898063 -3.58799,-4.701492 -0.91157,-1.975665 -1.37554,-2.81092 -2.01732,-4.961567 -1.3739,-4.6042 -1.73125,-9.444503 -2.15685,-14.2024 -0.40037,-7.327884 -0.46501,-14.702705 0.98136,-21.936641 1.24159,-5.318839 2.92558,-10.658223 6.36342,-15.005703 0.34679,-0.352513 0.65632,-0.745992 1.04034,-1.057538 0.22169,-0.179863 0.9748,-0.216111 0.75694,-0.400624 -2.33251,-1.975675 -5.0342,-3.471228 -7.485,-5.298123 -0.12468,-0.09295 0.33895,-0.03159 0.46228,0.06316 0.24452,0.187877 0.37057,1.087927 0.40637,1.253928 0.53956,3.723189 -0.19286,7.433315 -1.15861,11.034072 -1.82923,6.352124 -4.14359,12.534 -6.28158,18.786506 -2.34468,7.156704 -4.70702,14.314676 -7.49498,21.313997 -1.53123,3.473392 -3.90425,9.161148 -7.5306,11.012824 -0.42304,0.216011 -0.91768,0.245742 -1.3765,0.368612 -3.68678,-0.752245 -1.78927,-0.539872 5.05471,4.386207 0.44471,0.320098 -0.88903,-0.650423 -1.26773,-1.046451 -1.64129,-1.716466 -2.42871,-3.923996 -2.96963,-6.190263 -0.17864,-1.088181 -0.41436,-2.168517 -0.53594,-3.26454 -0.73559,-6.631131 0.25694,-13.314318 1.60351,-19.798652 0.60405,-2.277083 1.21851,-4.495273 2.06079,-6.69463 0.0902,-0.235567 0.48937,-0.543383 0.29062,-0.698714 -8.23913,-6.439199 -8.45074,-8.569735 -8.04667,-5.206532 0.0412,1.100013 0.0785,2.199952 0.0578,3.30109 -0.01,2.420583 -0.26953,4.832307 -0.7792,7.200347 -1.02891,4.532482 -2.35545,9.020733 -4.50657,13.162145 -1.82824,3.149279 -3.94705,6.481019 -7.63717,7.566146 -1.31204,0.01963 -1.28532,0.164415 -2.49634,-0.387667 -0.435,-0.198321 -1.62986,-0.994847 -1.24728,-0.708134 1.96123,1.469782 3.99378,2.841935 5.99065,4.262903 -0.44837,-0.355809 -0.92538,-0.678235 -1.34509,-1.067421 -0.46556,-0.431676 -0.8691,-0.92574 -1.30363,-1.38861 -1.19629,-1.616411 -1.647,-2.074905 -2.54693,-3.947314 -1.82438,-3.795908 -2.4915,-7.995721 -2.68378,-12.166629 0,-1.132739 -0.0486,-2.2666 0.003,-3.398218 0.15335,-3.440478 0.75351,-6.902566 1.90902,-10.148665 0.10187,-0.340217 0.26218,-0.71246 0.22775,-1.070885 -1.37787,-3.503242 -5.73111,-5.710076 -9.42567,-6.00845 -2.34738,-0.142835 -4.65923,0.221986 -6.94539,0.749515 -3.36357,0.859057 -7.00418,1.730946 -9.51817,4.269912 -0.29562,0.380269 -0.62416,0.737086 -0.88684,1.140806 -1.33729,2.055297 -1.62584,4.539364 -2.12559,6.880262 -0.56392,3.785949 -0.88013,7.607012 -0.96395,11.434299 -0.18854,4.042085 -0.39701,8.10726 -1.27935,12.069654 -0.91006,3.857882 -0.50878,1.033061 7.77119,6.026867 0.14014,0.08452 -0.0828,-0.31845 -0.0953,-0.481623 -0.11935,-1.552152 0.101,-3.114032 0.0529,-4.666277 0.0174,-6.711301 -0.37844,-13.418973 -0.35801,-20.131418 -0.0318,-2.246577 -0.0719,-4.478382 0.0451,-6.722229 0.0147,-0.280953 0.27724,-0.680664 0.0472,-0.842679 -2.54537,-1.793015 -5.39481,-3.113283 -8.02604,-4.777753 -0.0713,-0.04513 0.0958,-0.13902 0.14364,-0.208532 0.27172,-0.33415 0.38269,-0.265652 0.0709,0.0439 -1.54477,1.05309 -3.42965,1.395043 -5.16592,2.017086 -4.28889,1.16618 -8.66729,1.757751 -13.09286,2.122477 -3.16489,0.435467 -6.39944,0.768453 -9.42861,1.831297 -1.24789,0.669756 -1.31339,1.022033 -0.41817,1.910932 1.6952,1.102379 2.90266,2.791929 4.47196,4.055833 3.27447,2.916039 6.75887,5.581327 10.30202,8.161535 2.11166,1.683631 5.05231,3.659587 5.10315,6.703108 0.008,0.503118 -0.13967,0.996635 -0.20952,1.494951 -1.24375,2.772 -3.00711,5.419799 -6.00899,6.526144 -0.56398,0.207851 -1.1749,0.254336 -1.76235,0.381505 -0.59735,-0.01717 -1.20156,0.04029 -1.79206,-0.05153 -2.57861,-0.400947 -5.64171,-3.049215 3.11318,3.112 0.53382,0.375676 -1.04744,-0.791604 -1.48732,-1.273898 -1.22585,-1.344041 -1.58292,-2.370351 -2.39817,-4.005497 -0.91262,-2.428047 -1.22242,-3.00313 -1.7989,-5.592072 -0.9916,-4.453245 -1.06317,-9.03899 -1.14731,-13.577885 -0.0472,-6.919243 0.062,-13.857047 0.8113,-20.741915 0.50772,-3.739213 1.0674,-7.564607 2.57215,-11.054942 z" transform="translate(-4.5270226 -2.018756)"/>
  </g>
</svg>
